<svg xmlns="http://www.w3.org/2000/svg" viewBox="0 0 800 800"><defs><style>.cls-1{fill:#fff;}</style></defs><g id="Social_Icons" data-name="Social Icons"><path class="cls-1" d="M442.81,662.54V477.68c2.87-.18,5.74-.06,8.6-.08s6,0,8.95,0h44c3.91-25.5,7.81-50.88,11.75-76.55a81.17,81.17,0,0,0-9.29-.2c-3.06,0-6.13,0-9.19,0h-54.8c-.06-1-.15-1.83-.15-2.62q0-23.87,0-47.71a49.22,49.22,0,0,1,1.89-14c4.12-14,13.6-22.12,27.61-25.28A72.77,72.77,0,0,1,488,309.79c9.44,0,18.88,0,28.32,0h2.84V244.54c-3.19-.47-6.35-1.07-9.54-1.4-11.11-1.15-22.21-2.49-33.35-3.24-14.56-1-29.12-1-43.5,2.2-18,3.94-33.89,11.7-46.77,25.08-11.07,11.5-18,25.26-22.05,40.58a127.08,127.08,0,0,0-4.12,32.42q0,28.69,0,57.4v3.26H292.53v76.65c3.18.23,6.37.07,9.56.1s6.29,0,9.44,0h48.11V662.47c-109.23-14.65-217.2-111.57-223.22-250C129.91,262.56,247.89,138.8,395.87,135.91,544.43,133,663.52,251.4,666.17,395.62,668.78,537.93,561.67,645.78,442.81,662.54Z"/></g></svg>