<svg xmlns="http://www.w3.org/2000/svg" viewBox="0 0 800 800"><defs><style>.cls-1{fill:#fff;}</style></defs><g id="Social_Icons" data-name="Social Icons"><path class="cls-1" d="M399.91,173.59c64.35,0,128.71.19,193.06-.13,17.16-.08,31,12.19,33.32,27.27a34.28,34.28,0,0,1,.41,5.05q0,194.28,0,388.57a32.28,32.28,0,0,1-30.78,32.14c-1.13,0-2.26,0-3.39,0H207.25c-16.12,0-28.31-8.65-32.54-23.25a35.24,35.24,0,0,1-1.37-9.57q-.09-193.65-.05-387.3c0-18.39,13.84-32.55,32.28-32.77,15.55-.2,31.11,0,46.67,0Zm15.18,197.56c0-7.77-.19-15.55.07-23.31.14-3.94-1.21-5-5.08-5-18.38.18-36.77.08-55.15.09-5.63,0-5.66,0-5.66,5.54q0,103.29-.09,206.56c0,4.35,1.34,5.57,5.56,5.53,19.09-.18,38.18-.07,57.28-.08,5.67,0,5.68,0,5.68-5.57,0-34.64-.09-69.28.08-103.92a126.35,126.35,0,0,1,1.76-21.47c2.63-14.64,9.38-26.47,25.06-30.37a58,58,0,0,1,14.67-1.34c16.15.2,26.27,7.77,29.81,23.46a128.3,128.3,0,0,1,2.82,26.82c.31,35.62.19,71.25.05,106.88,0,4.27,1.3,5.63,5.58,5.59q28.63-.28,57.27,0c4.12,0,5.6-1,5.58-5.44-.17-41.28.32-82.58-.34-123.85a199.51,199.51,0,0,0-5.14-41c-5.51-24-19.5-41.62-44.1-48.51-8.46-2.37-17.45-3-26.23-4a69.8,69.8,0,0,0-42.06,8.34C431.33,352.12,422.5,360.7,415.09,371.15ZM239.72,451.58c0,34.63.05,69.26-.06,103.88,0,3.52.73,5.1,4.62,5.07q29.68-.21,59.37,0c3.57,0,4.56-1.34,4.56-4.76q-.12-104.1,0-208.19c0-3.83-1.31-4.75-4.93-4.73-19.51.15-39,.19-58.52,0-4.21-.05-5.16,1.33-5.14,5.3C239.78,382.61,239.72,417.1,239.72,451.58Zm34.15-137.72A39.35,39.35,0,1,0,234.6,274.7,39.13,39.13,0,0,0,273.87,313.86Z"/></g></svg>