<svg xmlns="http://www.w3.org/2000/svg" viewBox="0 0 800 800"><defs><style>.cls-1{fill:#252626;}.cls-2{fill:#fff;}</style></defs><g id="Social_Icons" data-name="Social Icons"><path class="cls-1" d="M400,697a297,297,0,1,1,210-87A295,295,0,0,1,400,697ZM284.81,257.09A133.36,133.36,0,0,0,151,390.22a134.68,134.68,0,0,0,38.74,95.15,130.44,130.44,0,0,0,93.56,39.39A133.34,133.34,0,0,0,416.87,391.05c0-73.81-59.19-133.9-131.93-134Zm219.25,8.18c-8.87,0-17.12,3.41-25.23,10.43-9.19,8-16.48,18.48-22.93,33.09-10.14,23-15.31,49.09-15.81,79.82a226.48,226.48,0,0,0,2.65,37.86c3.19,20.58,8.52,38,16.3,53.2,6.6,12.88,13.71,22,22.38,28.59,7.35,5.62,14.69,8.36,22.44,8.36a34.12,34.12,0,0,0,5.65-.48c8.65-1.45,16.26-5.84,24-13.83,8.22-8.53,14.94-19.38,20.53-33.18,9.15-22.58,13.81-47.38,14.65-78.06-.28-3.34-.53-6.69-.79-10-.57-7.43-1.15-15.11-2.05-22.56a172.18,172.18,0,0,0-14.11-51c-6.66-14.57-14.05-24.9-23.24-32.53-7.57-6.28-15.25-9.43-23.51-9.64Zm106.6,13.47a1.93,1.93,0,0,0-.91.64,22,22,0,0,0-3.54,4.89c-3.35,6.22-5.25,13-7.08,21.26-4.82,21.8-7.2,45.43-7.73,76.58-.5,29.48,1.13,55.59,5,79.81,1.58,10,3.65,21.5,8.15,32.05a33.7,33.7,0,0,0,4.86,8.13c.71.86,1.21,1,1.3,1s.65-.21,1.42-1.19a35.32,35.32,0,0,0,4.62-7.88c4.47-10.54,6.55-22.06,8.15-32,3.42-21.19,5-44.4,4.71-71,0-2,0-3.94,0-5.88,0-4.2,0-8.53-.06-12.75a369.19,369.19,0,0,0-6.11-60.78c-1.74-9.1-3.82-18.71-8.33-27.34a21.42,21.42,0,0,0-3.61-5A1.84,1.84,0,0,0,610.66,278.74Z"/><path class="cls-2" d="M400,108c161.27,0,292,130.73,292,292S561.27,692,400,692,108,561.27,108,400,238.73,108,400,108M283.36,529.76A138.34,138.34,0,0,0,421.87,391.05c0-76.41-61.57-138.9-136.93-139h-.13C208.07,252.1,146,313.81,146,390.22c0,77.06,61.41,139.52,137.3,139.54h.06m220.5-8.14a39.08,39.08,0,0,0,6.47-.55c10.77-1.8,19.34-7.61,26.74-15.29,9.67-10,16.37-22,21.56-34.77,10.4-25.66,14.29-52.51,15-80.08-.94-11-1.56-22.08-2.89-33.05a176.17,176.17,0,0,0-14.52-52.51c-6-13-13.42-25-24.6-34.3-7.7-6.39-16.35-10.53-26.57-10.79h-1c-11,0-20.3,4.55-28.5,11.65-11,9.55-18.42,21.68-24.23,34.85-11.49,26-15.78,53.54-16.24,81.76a230.07,230.07,0,0,0,2.71,38.7c2.95,19,8,37.47,16.79,54.72,6,11.63,13.27,22.24,23.79,30.28,7.7,5.89,16.12,9.39,25.48,9.39m106.83-13.48c1.87,0,3.73-1,5.35-3.1a39.82,39.82,0,0,0,5.29-9c4.5-10.61,6.67-21.87,8.49-33.19,3.84-23.78,5-47.75,4.77-71.79,0-6.24.13-12.48,0-18.71a375.53,375.53,0,0,0-6.2-61.59c-1.89-9.88-4.1-19.71-8.81-28.72a26.45,26.45,0,0,0-4.49-6.21,6.22,6.22,0,0,0-4.4-2.07,6.3,6.3,0,0,0-4.5,2.16,26.92,26.92,0,0,0-4.36,6c-3.8,7.07-5.83,14.77-7.55,22.54C588.6,330,586.84,356,586.4,382c-.46,27,.79,54,5,80.68,1.8,11.33,4,22.6,8.49,33.22a38.54,38.54,0,0,0,5.6,9.35,6.84,6.84,0,0,0,5.16,2.86M400,98a301.13,301.13,0,1,0,117.56,23.74A300.14,300.14,0,0,0,400,98ZM283.3,519.76a125.51,125.51,0,0,1-90-37.89A129.74,129.74,0,0,1,156,390.23,128.38,128.38,0,0,1,284.81,262.09h.13A125.17,125.17,0,0,1,374.54,300a129.52,129.52,0,0,1-.24,182.19,127.64,127.64,0,0,1-90.94,37.61Zm220.56-8.14c-6.61,0-13-2.4-19.4-7.33-8.06-6.16-14.72-14.71-21-26.9-7.53-14.73-12.7-31.64-15.81-51.69a220.69,220.69,0,0,1-2.59-37c.49-30,5.52-55.51,15.39-77.87,6.14-13.91,13-23.87,21.63-31.33,7.25-6.29,14.23-9.21,21.95-9.21h.77c7.18.18,13.68,2.88,20.43,8.49,8.6,7.13,15.55,16.9,21.9,30.76a167.05,167.05,0,0,1,13.68,49.56c.89,7.33,1.47,15,2,22.32.25,3.21.5,6.52.78,9.81-.85,29.92-5.4,54.09-14.29,76-5.34,13.2-11.72,23.53-19.49,31.59C523,506,516.22,510,508.68,511.21a29.5,29.5,0,0,1-4.82.41Zm106.8-16.5a31.87,31.87,0,0,1-1.53-3.1c-4.28-10-6.28-21.2-7.81-30.88-3.81-23.94-5.42-49.76-4.92-78.94.52-30.81,2.87-54.13,7.61-75.59,1.74-7.85,3.53-14.26,6.6-20l0-.07.05.11c4.18,8,6.17,17.2,7.84,25.94a363.72,363.72,0,0,1,6,60c.11,4.15.08,8.25.06,12.6,0,1.95,0,3.91,0,5.86v.1c.25,26.26-1.27,49.19-4.64,70.1-1.56,9.69-3.58,20.86-7.83,30.88a30.74,30.74,0,0,1-1.46,3Z"/></g></svg>