<svg xmlns="http://www.w3.org/2000/svg" xmlns:xlink="http://www.w3.org/1999/xlink" viewBox="0 0 1608 1677"><defs><style>.cls-1{fill:#354a59;}.cls-2{fill:url(#Dégradé_sans_nom_7);}.cls-3{fill:url(#Dégradé_sans_nom_32);}</style><linearGradient id="Dégradé_sans_nom_7" x1="936.9" y1="1124.65" x2="1187.45" y2="322.06" gradientUnits="userSpaceOnUse"><stop offset="0" stop-color="#8431ad"/><stop offset="0.05" stop-color="#9640b8"/><stop offset="0.16" stop-color="#b65bcd"/><stop offset="0.28" stop-color="#d172de"/><stop offset="0.41" stop-color="#e583eb"/><stop offset="0.55" stop-color="#f490f4"/><stop offset="0.72" stop-color="#fc97f9"/><stop offset="1" stop-color="#ff99fb"/></linearGradient><linearGradient id="Dégradé_sans_nom_32" x1="906.79" y1="967.45" x2="1016.52" y2="1741.88" gradientUnits="userSpaceOnUse"><stop offset="0" stop-color="#132938"/><stop offset="1" stop-color="#1f2b36"/></linearGradient></defs><g id="Parallax_Kingdom" data-name="Parallax Kingdom"><g id="Midgard"><g id="Color"><polygon class="cls-1" points="1608 461.43 1571.5 471.5 1504.5 504.5 1489.5 516.5 1460.5 535.5 1432.46 540 1421.5 549.5 1404.76 549.5 1378.5 569.5 1369.5 575.5 1359.15 575.5 1350.5 585.5 1332.31 585.5 1323.5 595.5 1270.5 615.5 1255.17 615.5 1247.5 621.5 1231.5 625.5 1226.5 631.5 1208.5 637.5 1202.5 641.5 1182.5 647.5 1128.5 680.5 1099.5 698.5 1078.5 715.5 1038.5 743.5 1017.5 775.5 999.5 802.5 984.5 825.5 963.5 860.5 940.5 903.5 932.5 917.5 927.5 934.5 909.5 955.5 858.5 1003.5 837.5 1028.5 793.17 1080 766.5 1104.5 749.5 1145.5 713.5 1177.5 630.5 1271.5 593.5 1320.5 564.5 1330.5 462.5 1441.5 339.5 1603.5 292.5 1650.5 276.24 1676.79 1608 1676.79 1608 461.43"/><polygon class="cls-2" points="1608 232.8 1559.5 246.5 1501.5 265.5 1468.5 279.5 1458.5 287.5 1415.5 280.5 1383.5 301.5 1345.14 301.5 1269.5 325.5 1205.5 342.5 1112.5 393.5 1090.5 396.5 1072.5 418.5 976.5 466.5 945.45 466.5 901.5 489.5 844 523 834.5 548.5 789.5 601.5 758.5 651.5 732.5 676.5 710.5 719.5 615.5 849.5 601.5 900.5 559.5 959.5 476.5 1190.5 429.5 1263.5 422.95 1493.59 564.5 1330.5 593.5 1320.5 713.5 1177.5 749.5 1145.5 766.5 1104.5 793.17 1080 858.5 1003.5 909.5 955.5 927.5 934.5 932.5 917.5 984.5 825.5 1038.5 743.5 1099.5 698.5 1182.5 647.5 1202.5 641.5 1208.5 637.5 1226.5 631.5 1231.5 625.5 1247.5 621.5 1255.17 615.5 1270.5 615.5 1323.5 595.5 1332.31 585.5 1350.5 585.5 1359.15 575.5 1369.5 575.5 1404.76 549.5 1421.5 549.5 1432.46 540 1460.5 535.5 1489.5 516.5 1504.5 504.5 1571.5 471.5 1608 461.43 1608 232.8"/></g><g id="Shading"><polyline class="cls-3" points="1608 756.76 1589.5 739.5 1578.5 729.5 1562.5 709.5 1554.82 709.5 1548.5 713.5 1559.5 729.5 1568.5 740.5 1578.25 753.93 1581.5 767.5 1578.25 772.54 1546.5 753.5 1530.5 743.5 1508.5 719.5 1508.5 730.78 1516.5 744.5 1523.5 754.5 1535.5 774.5 1541.5 791.5 1545.5 808.5 1542.5 821.5 1516.5 812.5 1497.5 804.5 1480.5 792.5 1460.5 780.5 1457.5 789.5 1465.5 801.5 1483.5 813.5 1498.5 824.5 1502.5 836.5 1504.5 845.5 1487.5 841.5 1477.5 839.5 1474.5 854.5 1476.5 872.5 1488.5 890.5 1492.5 900.5 1508.5 917.5 1512.5 934.5 1490.5 946.5 1482.5 956.5 1490.5 968.5 1509.5 974.5 1513.5 986.5 1493.5 998.5 1503.5 1012.5 1518.5 1020.5 1532.75 1020.5 1539.5 1030.5 1545.5 1046.5 1544.5 1061.5 1507.22 1061.5 1493.5 1073.5 1476.97 1080 1457.5 1096.42 1443.5 1101.5 1435.8 1080 1449.5 1053.5 1457.5 1038.5 1461.5 1025.5 1476.5 1017.5 1476.5 1001.5 1474.5 988.5 1471.5 977.5 1449.5 974.5 1435.8 964.51 1431.5 980.5 1431.5 989.71 1431.5 1001.48 1401.5 1002.5 1388.5 1009.5 1369.5 1009.5 1345.5 1005.5 1325.5 996.5 1319.5 1007.5 1329.5 1023.5 1329.5 1036.5 1312.5 1045.5 1283.5 1036.5 1269.5 1041.5 1265.5 1055.5 1265.5 1071.53 1267.5 1082.5 1263.5 1097.5 1244.5 1105.5 1226.5 1109.5 1217.5 1122.5 1197.5 1109.5 1185.5 1107.5 1185.5 1120.4 1190.5 1131.5 1180.5 1144.5 1168.5 1149.5 1168.5 1163.83 1156.5 1166.5 1146.5 1154.5 1140.5 1124.5 1146.5 1097.5 1152.5 1086.5 1160.5 1074.5 1161.5 1046.5 1186.5 1012.5 1180.5 994.5 1164.5 991.5 1149.5 999.5 1140.5 1021.89 1102.5 1042.5 1082.5 1062.5 1078.5 1090.5 1034.5 1093.5 1015.48 1114.6 1007.5 1135.5 994.5 1153.5 977.5 1171.5 982.5 1184.5 1001.5 1192.5 1015.48 1201.83 1023.5 1212.5 1044.5 1207.5 1056.54 1226.5 1076.5 1236.5 1091.5 1226.5 1105.46 1229.96 1116.5 1236.5 1136.72 1229.96 1139.5 1250.5 1136.5 1258.5 1133.5 1267.5 1131.5 1280.5 1155.5 1267.5 1168.5 1260.5 1176.5 1249.5 1193.5 1233.5 1201.5 1241.5 1220.5 1229.96 1220.5 1259.5 1220.5 1298.5 1206.5 1312.5 1194.5 1327.24 1194.5 1338.5 1183.5 1345.5 1171.5 1370.5 1154.5 1378.5 1123.74 1405.5 1086.5 1405.5 1063.5 1389.5 1027.5 1396.5 994.5 1389.5 994.5 1376.5 986.5 1370.5 972.5 1362.5 955.5 1345.5 951.5 1326.5 918.5 1315.79 918.5 1302.5 913.5 1299.79 913.5 1291.55 907.5 1281.5 913.5 1276.03 913.5 1269.5 904.5 1259.5 878.5 1262.5 856.5 1263.5 817.5 1274.5 758.5 1293.5 744.5 1337.5 707.5 1356.5 665.5 1338.5 617.5 1339.5 593.5 1320.5 564.5 1330.5 422.95 1493.59 339.5 1603.5 292.5 1650.5 276.24 1676.79 1608 1676.79 1608 756.76"/></g></g></g></svg>