<svg id="B_W_Logo" data-name="B&amp;W Logo" xmlns="http://www.w3.org/2000/svg" viewBox="0 0 800 800"><defs><style>.cls-1{fill:#252626;}.cls-2{fill:#fff;}.cls-3{fill:#ff99fb;}.cls-4{fill:#a4f6f9;}.cls-5{fill:#ba52ed;}</style></defs><polygon class="cls-1" points="116.37 229.95 116.37 557.98 400.45 722 684.54 557.98 684.54 229.95 400.45 65.94 116.37 229.95"/><polygon class="cls-1" points="139.47 544.98 139.47 243.4 400.65 92.61 661.83 243.4 661.83 544.98 400.65 695.77 139.47 544.98"/><path class="cls-2" d="M400.65,98.39l256.18,147.9V542.1L400.65,690,144.47,542.1V246.29L400.65,98.39m0-11.55-5,2.89L139.47,237.63l-5,2.89V547.87l5,2.89,256.18,147.9,5,2.89,5-2.89,256.18-147.9,5-2.89V240.52l-5-2.89L405.65,89.73l-5-2.89Z"/><polygon class="cls-3" points="327.29 276.85 245.05 276.85 203.93 348.07 245.05 419.3 327.29 419.3 368.41 348.07 327.29 276.85"/><polygon class="cls-4" points="497.56 390.07 400.67 390.07 352.22 473.98 400.67 557.89 497.56 557.89 546 473.98 497.56 390.07"/><polygon class="cls-5" points="456.66 202.04 402.06 202.04 374.77 249.32 402.06 296.6 456.66 296.6 483.95 249.32 456.66 202.04"/></svg>