<svg xmlns="http://www.w3.org/2000/svg" xmlns:xlink="http://www.w3.org/1999/xlink" viewBox="0 0 1608 1677"><defs><style>.cls-1{fill:url(#Dégradé_sans_nom_186);}.cls-2{fill:url(#Dégradé_sans_nom_222);}.cls-3{fill:url(#Dégradé_sans_nom_186-2);}</style><linearGradient id="Dégradé_sans_nom_186" x1="1053.25" y1="169.87" x2="1608" y2="169.87" gradientUnits="userSpaceOnUse"><stop offset="0" stop-color="#a9f3f5"/><stop offset="1" stop-color="#e8feff"/></linearGradient><linearGradient id="Dégradé_sans_nom_222" x1="720.95" y1="596.77" x2="665.43" y2="324.44" gradientUnits="userSpaceOnUse"><stop offset="0" stop-color="#c47fe3"/><stop offset="0.17" stop-color="#d194e9"/><stop offset="0.54" stop-color="#eabff4"/><stop offset="0.83" stop-color="#f9d9fb"/><stop offset="1" stop-color="#ffe3fe"/></linearGradient><linearGradient id="Dégradé_sans_nom_186-2" x1="500.89" y1="231.27" x2="884.5" y2="231.27" xlink:href="#Dégradé_sans_nom_186"/></defs><g id="Parallax_Kingdom" data-name="Parallax Kingdom"><g id="Background"><g id="Color"><polygon class="cls-1" points="1608 131.24 1558 142 1499 149 1433.82 149 1418 158 1401.33 158 1303.5 171.5 1267.04 171.5 1217.22 164.5 1128.42 171.5 1053.25 186.47 1098.2 192.97 1127.5 200.5 1147.5 191.5 1181.49 200.5 1206.5 189.5 1261.5 192.5 1383.5 208.5 1408.5 201.5 1442.5 184.5 1489.5 177.5 1510.5 181.5 1521.65 169 1521.65 169 1530.4 173.5 1552.5 164.5 1564.88 173.5 1596.5 173.5 1608 167.12 1608 131.24"/><polygon class="cls-2" points="884.5 190.5 922.74 190.5 942.12 184.44 960 190.5 995.44 187.47 1026.2 190.5 1053.25 186.47 1098.2 192.97 1127.5 200.5 1147.5 191.5 1181.49 200.5 1206.5 189.5 1261.5 192.5 1383.5 208.5 1364.5 223.5 1354.5 220.5 1329.5 241.5 1310.5 244.5 1290.5 260.5 1267.5 258.5 1257.5 275.5 1231.95 275.5 1214.5 297.5 1176.5 321.5 1149.5 333.5 1108.5 362.5 1098.2 374.34 1066.5 380.5 1023.5 394.5 990.9 402.16 955.43 419.5 928.5 419.5 889.5 437.05 860.07 437.05 836.5 461.43 804 475.78 772.5 477.59 645.5 516.07 630.95 531.5 619.34 560.31 570.73 599.5 500.89 677.5 -1 693.67 -1 455.09 99.5 416.85 190.5 374.34 246.5 374.34 296.5 331.5 310.03 311.19 331.72 312.12 368.5 307.46 413 295.35 451.8 293.48 489.5 270.5 532.9 269.25 561.18 272.05 613.5 257.5 647.5 247.81 682.5 252.47 722.18 245.95 761.5 239.5 809.5 238.49 844 219.85 865.78 209.6 884.5 190.5"/><polygon class="cls-3" points="884.5 190.5 854.5 190.5 831.83 196.12 793.5 196.5 753.37 201.92 706.3 196.21 656.5 212.5 578.32 228.45 555.5 250.84 525.5 255.5 500.89 270.17 532.9 269.25 561.18 272.05 647.5 247.81 682.5 252.47 761.5 239.5 809.5 238.49 844 219.85 865.78 209.6 884.5 190.5"/></g></g></g></svg>