<svg xmlns="http://www.w3.org/2000/svg" xmlns:xlink="http://www.w3.org/1999/xlink" viewBox="0 0 1608 1677"><defs><style>.cls-1{fill:url(#Dégradé_sans_nom_258);}.cls-2{fill:url(#Dégradé_sans_nom_132);}</style><linearGradient id="Dégradé_sans_nom_258" x1="1352.33" y1="384.37" x2="1325.89" y2="246.88" gradientUnits="userSpaceOnUse"><stop offset="0" stop-color="#c887e6"/><stop offset="0.41" stop-color="#e3abf2"/><stop offset="0.78" stop-color="#f8c5fb"/><stop offset="1" stop-color="#ffcffe"/></linearGradient><linearGradient id="Dégradé_sans_nom_132" x1="798.09" y1="556.06" x2="806.27" y2="386.39" gradientUnits="userSpaceOnUse"><stop offset="0" stop-color="#b589c9"/><stop offset="0.42" stop-color="#dbade4"/><stop offset="0.78" stop-color="#f5c6f7"/><stop offset="1" stop-color="#ffcffe"/></linearGradient></defs><g id="Parallax_Kingdom" data-name="Parallax Kingdom"><g id="Highgard"><g id="Color"><polygon class="cls-1" points="1608 167.12 1596.5 173.5 1564.88 173.5 1552.5 164.5 1530.4 173.5 1521.65 169 1510.5 181.5 1489.5 177.5 1466.08 181.5 1442.5 184.5 1408.5 201.5 1383.5 208.5 1364.5 223.5 1354.5 220.5 1329.5 241.5 1310.5 244.5 1290.5 260.5 1267.5 258.5 1257.5 275.5 1231.95 275.5 1214.5 297.5 1176.5 321.5 1149.5 333.5 1108.5 362.5 1088.5 385.5 1062.41 423.55 1072.5 418.5 1090.5 396.5 1112.5 393.5 1205.5 342.5 1269.5 325.5 1345.14 301.5 1383.5 301.5 1415.5 280.5 1458.5 287.5 1468.5 279.5 1501.5 265.5 1559.5 246.5 1608 232.8 1608 167.12"/><polygon class="cls-2" points="928.5 419.5 955.43 419.5 990.9 402.16 1023.5 394.5 1066.5 380.5 1098.2 374.34 1088.5 385.5 1062.41 423.55 976.5 466.5 945.45 466.5 854.5 525.5 789.5 601.5 758.5 651.5 500.89 677.5 563.93 602.5 619.34 560.31 630.95 531.5 645.5 516.07 731 489.61 772.5 477.59 804 475.78 836.5 461.43 860.07 437.05 889.5 437.05 915.14 425.32 928.5 419.5"/></g></g></g></svg>