<svg xmlns="http://www.w3.org/2000/svg" viewBox="0 0 800 800"><defs><style>.cls-1{fill:#fff;}</style></defs><g id="Social_Icons" data-name="Social Icons"><path class="cls-1" d="M482,667H316a32.1,32.1,0,0,0-4.72-.8c-19.48-.58-38.92-1.46-57.94-6.23-42.92-10.77-74.14-35.66-91.84-76.59-9.6-22.19-12.39-45.78-13.36-69.68-.22-5.24-.75-10.47-1.14-15.7V332a32.1,32.1,0,0,0,.8-4.72c.58-19.48,1.46-38.92,6.23-57.94,10.77-42.92,35.66-74.14,76.59-91.84,22.19-9.6,45.78-12.39,69.68-13.36,5.24-.22,10.47-.75,15.7-1.14H482a32.1,32.1,0,0,0,4.72.8c19.48.58,38.92,1.46,57.94,6.23,42.92,10.77,74.14,35.66,91.84,76.59,9.6,22.19,12.38,45.78,13.36,69.68.22,5.24.75,10.47,1.14,15.7V498a32.1,32.1,0,0,0-.8,4.72c-.58,19.48-1.46,38.92-6.23,57.94-10.77,42.92-35.66,74.14-76.59,91.84-22.19,9.6-45.78,12.38-69.68,13.36C492.46,666.08,487.23,666.61,482,667ZM192.06,414.74h.78c0,21.16-.41,42.32.12,63.47.48,19.62,1.24,39.29,3.22,58.8,1.92,19,8.57,36.5,21.43,51.24,17.83,20.43,41.31,29,67.29,30.54,29.23,1.77,58.56,2.24,87.85,2.59q44.73.54,89.47-.35c19.62-.39,39.29-1.25,58.8-3.22,19-1.91,36.5-8.57,51.24-21.44,20.43-17.82,29-41.31,30.54-67.28,1.77-29.23,2.24-58.56,2.59-87.86q.54-44.72-.35-89.46c-.39-19.62-1.24-39.29-3.22-58.8-1.92-19-8.57-36.5-21.43-51.24-17.83-20.43-41.31-29-67.29-30.54-29.73-1.78-59.56-2.23-89.35-2.59-29.15-.36-58.33-.37-87.47.39-21.76.56-43.74,1-65.18,4.3-36.63,5.66-61.54,26.75-71.45,63.11a165,165,0,0,0-5.43,36.93C193,347.12,192.71,380.94,192.06,414.74Z"/><path class="cls-1" d="M528.51,415.22c-.06,71.62-58.17,129.42-130,129.29-71.35-.14-129.11-58.21-129-129.73a129.43,129.43,0,0,1,130-129.29C470.84,285.64,528.56,343.67,528.51,415.22ZM398.86,498.83c45.91,0,83.92-37.49,84-82.81.05-46.76-37.14-84.81-82.94-84.85-46.92,0-84.71,37.24-84.72,83.56S352.66,498.83,398.86,498.83Z"/><path class="cls-1" d="M563.84,280.51a30.4,30.4,0,1,1-30.51-30.35A30.43,30.43,0,0,1,563.84,280.51Z"/></g></svg>