<svg xmlns="http://www.w3.org/2000/svg" viewBox="0 0 800 800"><defs><style>.cls-1{fill:#252626;}.cls-2{fill:#fff;}</style></defs><g id="Social_Icons" data-name="Social Icons"><path class="cls-1" d="M315.56,672l-.43-.08c-.56-.1-1.13-.22-1.69-.34a14.43,14.43,0,0,0-2.31-.39c-20.07-.59-39.68-1.53-59-6.37-45.29-11.37-77.33-38.1-95.21-79.45C146.35,561,144,535.54,143.14,513.91c-.14-3.49-.44-7.08-.73-10.55-.14-1.66-.27-3.33-.4-5V331.56l.08-.43c.1-.56.22-1.13.34-1.69a14.43,14.43,0,0,0,.39-2.31c.59-20.09,1.53-39.72,6.37-59,11.37-45.3,38.1-77.33,79.45-95.21,24.42-10.56,49.83-12.88,71.46-13.77,3.49-.14,7.08-.44,10.56-.73l5-.4H482.44l.43.08c.56.1,1.13.22,1.69.34a14.43,14.43,0,0,0,2.31.39c20.09.59,39.72,1.53,59,6.37,45.3,11.37,77.33,38.1,95.21,79.46,10.55,24.39,12.88,49.8,13.77,71.45.14,3.49.44,7.08.73,10.56.14,1.66.27,3.32.4,5V498.44l-.08.43c-.1.56-.22,1.13-.34,1.69a14.43,14.43,0,0,0-.39,2.31c-.59,20.07-1.53,39.68-6.38,59-11.36,45.29-38.09,77.33-79.44,95.21C545,667.64,519.56,670,497.91,670.86c-3.49.14-7.08.44-10.56.73l-5,.4H315.56ZM197.84,409.8v4.95c0,6.43,0,12.87-.08,19.31-.08,14.45-.17,29.39.19,44,.44,17.58,1.16,38.26,3.2,58.43,1.92,19,8.72,35.27,20.23,48.45,15.48,17.74,36.35,27.17,63.82,28.84,29.06,1.76,58,2.23,87.61,2.58,11.08.13,22.34.2,33.47.2,18.46,0,37.25-.18,55.84-.55,22.72-.45,41.28-1.46,58.4-3.19,19-1.91,35.26-8.72,48.45-20.23,17.74-15.48,27.17-36.36,28.84-63.82,1.76-29.09,2.23-58,2.58-87.62s.24-59.49-.35-89.3c-.45-22.74-1.46-41.3-3.19-58.4-1.92-19-8.72-35.27-20.23-48.45-15.5-17.76-36.37-27.19-63.82-28.83-29-1.74-57.52-2.2-89.11-2.59-12.87-.16-24.63-.24-35.95-.24-18.36,0-35.15.21-51.33.62l-3.12.08c-20.32.52-41.32,1.06-61.43,4.17-35.45,5.48-58.12,25.5-67.39,59.49a159.41,159.41,0,0,0-5.25,35.8c-.91,24.14-1.3,48.73-1.67,72.52q-.2,11.86-.39,23.75Z"/><path class="cls-2" d="M482,163a32.1,32.1,0,0,0,4.72.8c19.48.58,38.92,1.46,57.94,6.23,42.92,10.77,74.14,35.66,91.84,76.59,9.6,22.19,12.38,45.78,13.36,69.68.22,5.24.75,10.47,1.14,15.7V498a32.1,32.1,0,0,0-.8,4.72c-.58,19.48-1.46,38.92-6.23,57.94-10.77,42.92-35.66,74.14-76.59,91.84-22.19,9.6-45.78,12.38-69.68,13.36-5.24.22-10.47.75-15.7,1.14H316a32.1,32.1,0,0,0-4.72-.8c-19.48-.58-38.92-1.46-57.94-6.23-42.92-10.77-74.14-35.66-91.84-76.59-9.6-22.19-12.39-45.78-13.36-69.68-.22-5.24-.75-10.47-1.14-15.7V332a32.1,32.1,0,0,0,.8-4.72c.58-19.48,1.46-38.92,6.23-57.94,10.77-42.92,35.66-74.14,76.59-91.84,22.19-9.6,45.78-12.39,69.68-13.36,5.24-.22,10.47-.75,15.7-1.14H482M406.26,621.59q28,0,56-.55c19.62-.39,39.29-1.25,58.8-3.22,19-1.91,36.5-8.57,51.24-21.44,20.43-17.82,29-41.31,30.54-67.28,1.77-29.23,2.24-58.56,2.59-87.86q.54-44.72-.35-89.46c-.39-19.62-1.24-39.29-3.22-58.8-1.92-19-8.57-36.5-21.43-51.24-17.83-20.43-41.31-29-67.29-30.54-29.73-1.78-59.56-2.23-89.35-2.59q-18-.23-36-.24c-17.15,0-34.31.18-51.46.63-21.76.56-43.74,1-65.18,4.3-36.63,5.66-61.54,26.75-71.45,63.11a165,165,0,0,0-5.43,36.93c-1.27,33.78-1.51,67.6-2.16,101.4h.78c0,21.16-.41,42.32.12,63.47.48,19.62,1.24,39.29,3.22,58.8,1.92,19,8.57,36.5,21.43,51.24,17.83,20.43,41.31,29,67.29,30.54,29.23,1.77,58.56,2.24,87.85,2.59q16.75.2,33.51.2M482.88,153H315.63l-.37,0c-1.68.12-3.36.26-5,.4-3.57.3-7,.58-10.33.72-22.1.9-48.07,3.29-73.24,14.17C183.8,186.85,156.1,220,144.33,266.9c-5,19.78-5.92,39.71-6.52,60.08,0,.21-.17.9-.28,1.4s-.26,1.19-.38,1.88l-.15.86V498.37l0,.37c.12,1.68.26,3.36.4,5,.3,3.57.58,7,.72,10.33.9,22.1,3.29,48.07,14.17,73.24,18.53,42.86,51.7,70.55,98.58,82.31,19.82,5,39.73,5.93,60.08,6.53.21,0,.9.17,1.4.28s1.19.26,1.88.38l.86.15H482.37l.37,0c1.68-.12,3.36-.26,5-.4,3.57-.3,7-.58,10.33-.72,22.11-.9,48.1-3.3,73.24-14.17,42.86-18.53,70.55-51.7,82.31-98.58,5-19.82,5.93-39.73,6.53-60.08,0-.21.17-.9.28-1.4s.26-1.19.38-1.88l.15-.86V331.63l0-.37c-.12-1.68-.26-3.36-.4-5-.3-3.57-.58-7-.72-10.33-.9-22.11-3.3-48.1-14.17-73.24C627.15,199.8,594,172.1,547.1,160.33c-19.78-5-39.71-5.92-60.08-6.52-.21,0-.9-.17-1.4-.28s-1.19-.26-1.88-.38l-.86-.15ZM202.24,404.85c.11-6.3.21-12.58.31-18.73.37-23.76.76-48.32,1.67-72.4a154,154,0,0,1,5.07-34.67c8.71-31.92,30-50.72,63.34-55.87,19.79-3.06,40.64-3.59,60.8-4.11l3.11-.08c16.13-.41,32.88-.62,51.2-.62,11.3,0,23,.08,35.88.24,31.55.38,60,.85,88.88,2.58,26,1.56,45.78,10.43,60.35,27.12,10.81,12.39,17.22,27.76,19,45.67,1.71,17,2.72,35.4,3.16,58,.59,29.76.7,59.75.35,89.14s-.82,58.43-2.57,87.37c-1.58,26.06-10.46,45.81-27.13,60.36-12.4,10.82-27.76,17.22-45.67,19-17,1.71-35.42,2.72-58,3.16-18.57.37-37.33.55-55.76.55-11.1,0-22.34-.07-33.39-.2-29.54-.35-58.45-.82-87.37-2.57-26.06-1.59-45.8-10.46-60.35-27.13-10.81-12.39-17.21-27.76-19-45.67-2-20-2.73-40.57-3.17-58-.36-14.57-.27-29.47-.19-43.88,0-6.34.08-12.89.08-19.34v-9.9Z"/><path class="cls-1" d="M398.52,549.51c-74-.14-134.11-60.58-134-134.73a134.44,134.44,0,0,1,134.7-134.29h.29c74,.16,134.09,60.59,134,134.73A134.44,134.44,0,0,1,398.79,549.51Zm1.29-213.34a79.69,79.69,0,0,0-56.38,23,77.53,77.53,0,0,0-23.26,55.58,78.92,78.92,0,0,0,78.69,79.1h0a78.83,78.83,0,0,0,55.66-23A76.72,76.72,0,0,0,477.83,416,80.08,80.08,0,0,0,455,359.57a76.66,76.66,0,0,0-55.09-23.4l-.08-5Z"/><path class="cls-2" d="M399.19,285.49h.28c71.37.15,129.09,58.18,129,129.73A129.43,129.43,0,0,1,398.78,544.51h-.25c-71.35-.14-129.11-58.21-129-129.73a129.43,129.43,0,0,1,129.7-129.29m-.33,213.34c45.91,0,83.92-37.49,84-82.81.05-46.76-37.14-84.81-82.94-84.85h-.08c-46.88,0-84.63,37.26-84.64,83.56s37.49,84.1,83.69,84.1m.33-223.34a139.51,139.51,0,0,0-.68,279h.27a139.51,139.51,0,0,0,.71-279Zm-.32,223.34v-10A73.79,73.79,0,0,1,346.94,362.7a74.74,74.74,0,0,1,52.87-21.53l.08-10v10a71.65,71.65,0,0,1,51.52,21.89A75.15,75.15,0,0,1,472.83,416,71.79,71.79,0,0,1,451,467.3a73.87,73.87,0,0,1-52.15,21.53h0v10Z"/><path class="cls-1" d="M533.36,316a35.58,35.58,0,0,1-35.31-35.69A35.38,35.38,0,1,1,533.39,316Z"/><path class="cls-2" d="M533.41,250.16a30.4,30.4,0,1,1,0,60.79h0a30.4,30.4,0,0,1,0-60.79h.08m0-10v0h-.11A40.32,40.32,0,0,0,504.84,309a40.38,40.38,0,1,0,28.58-68.81Z"/></g></svg>