<svg xmlns="http://www.w3.org/2000/svg" viewBox="0 0 800 800"><defs><style>.cls-1{fill:#252626;}.cls-2{fill:#fff;}</style></defs><g id="Social_Icons" data-name="Social Icons"><path class="cls-1" d="M207.25,631.53c-18.51,0-32.47-10-37.34-26.86a40.32,40.32,0,0,1-1.57-11c-.06-133.3-.06-268.24-.05-387.3,0-21.28,16-37.51,37.22-37.77,5.52-.07,11.45-.1,18.67-.1l14,0q7,0,13.93,0H399.91l52.4,0,52.9,0c34.46,0,62.33-.06,87.74-.19h.2c19,0,35.35,13.55,38.08,31.52a38.46,38.46,0,0,1,.47,5.8q0,194.28,0,388.57a37.12,37.12,0,0,1-35.56,37.14c-1.09,0-2.11,0-3.25,0H207.25Zm290.23-76c9.27-.09,18.86-.14,28.49-.14,9.38,0,19.09.05,28.88.13h.52c0-.12,0-.26,0-.41-.06-15.12,0-30.48,0-45.34,0-25.72.09-52.32-.33-78.45a192.85,192.85,0,0,0-5-39.95c-5.43-23.71-19.08-38.79-40.57-44.82-6.33-1.77-13-2.48-20-3.23-1.82-.2-3.63-.39-5.44-.6a64.45,64.45,0,0,0-39.1,7.77c-9.82,5.29-18.24,13-25.72,23.54l-9.07,12.8v-15.7c0-2.26,0-4.52,0-6.79,0-5.4-.07-11,.11-16.53h0c-7.56.08-15.59.11-26,.11H354.27v43.85c0,53.51,0,108.84-.09,163.26,0,.2,0,.37,0,.52h.5c7.7-.07,15.91-.11,26.64-.11l13.6,0H412.7v-.56q0-14.22,0-28.42c0-24.75,0-50.35.09-75.53a129,129,0,0,1,1.84-22.32c3.39-18.88,13.07-30.44,28.77-34.35a59.77,59.77,0,0,1,14.47-1.49h1.47C478,393,490,402.49,494,420.16A133.24,133.24,0,0,1,496.9,448c.32,37.14.17,75.85.05,107,0,.22,0,.41,0,.57ZM244.64,348.1c.11,26.57.1,53.58.09,79.7v46.78c0,26.52,0,53.93-.07,80.9v0c9.28-.07,19-.1,29-.1,9.44,0,19.12,0,29.58.09-.08-75.35-.08-143.29,0-207.68-10.89.09-20.65.13-29.84.13-10.17,0-19.54-.05-28.66-.15h-.08ZM274,240.16a34.35,34.35,0,1,0,34.35,34.65,34.52,34.52,0,0,0-10-24.54A34,34,0,0,0,274,240.16v0Z"/><path class="cls-2" d="M593.15,173.46c17.07,0,30.85,12.24,33.14,27.27a34.28,34.28,0,0,1,.41,5.05q0,194.28,0,388.57a32.28,32.28,0,0,1-30.78,32.14c-1,0-2,0-3,0H207.25c-16.12,0-28.31-8.65-32.54-23.25a35.24,35.24,0,0,1-1.37-9.57q-.09-193.65-.05-387.3c0-18.39,13.84-32.55,32.28-32.77,6.21-.08,12.43-.1,18.64-.1,9.33,0,18.65.05,28,.05H399.91q52.65,0,105.31,0,43.88,0,87.75-.18h.18M273.87,313.86a39.35,39.35,0,1,0,.11-78.7h0a39.35,39.35,0,0,0-.1,78.7m141.22,57.29c0-7.77-.19-15.55.07-23.31.14-3.88-1.16-5-4.89-5h-.19c-8.67.09-17.34.11-26,.11l-27.72,0h-1.41c-5.63,0-5.66,0-5.66,5.54q0,103.29-.09,206.56c0,4.28,1.3,5.53,5.36,5.53h.2q13.29-.12,26.57-.11c9.11,0,18.21,0,27.31,0H412c5.67,0,5.68,0,5.68-5.57,0-34.64-.09-69.28.08-103.92a126.35,126.35,0,0,1,1.76-21.47c2.63-14.64,9.38-26.47,25.06-30.37a55.32,55.32,0,0,1,13.25-1.35h1.42c16.15.2,26.27,7.77,29.81,23.46a128.3,128.3,0,0,1,2.82,26.82c.31,35.62.19,71.25.05,106.88,0,4.2,1.26,5.59,5.39,5.59h.19q14.21-.13,28.42-.14,14.43,0,28.85.14H555c4,0,5.39-1.08,5.37-5.44-.17-41.28.32-82.58-.34-123.85a199.51,199.51,0,0,0-5.14-41c-5.51-24-19.5-41.62-44.1-48.51-8.46-2.37-17.45-3-26.23-4a71.58,71.58,0,0,0-8.22-.48,70.64,70.64,0,0,0-33.84,8.82c-11.18,6-20,14.59-27.42,25M244.18,560.53h.1q14.66-.1,29.33-.1,15,0,30,.09h.08c3.5,0,4.48-1.37,4.48-4.76q-.12-104.1,0-208.19c0-3.78-1.28-4.73-4.77-4.73h-.16q-15,.12-29.91.13-14.31,0-28.61-.15h-.21c-4,0-4.95,1.39-4.93,5.3.14,34.49.08,69,.08,103.46s.05,69.26-.06,103.88c0,3.49.72,5.07,4.52,5.07m349-397.07h-.22c-25.39.13-53.26.18-87.71.18l-52.73,0q-26.3,0-52.58,0H252.19q-7,0-14,0l-14,0c-7.25,0-13.21,0-18.77.1a42.09,42.09,0,0,0-42.15,42.77c0,143.69,0,263.45.05,387.3a45.28,45.28,0,0,0,1.76,12.35c5.45,18.79,21.6,30.47,42.15,30.47H592.9c1.15,0,2.28,0,3.46-.06a42.29,42.29,0,0,0,40.35-42.13c0-123.86,0-251,0-388.57a44.46,44.46,0,0,0-.52-6.55c-3.11-20.39-21.6-35.77-43-35.77ZM273.87,313.86v-10A28.92,28.92,0,0,1,244.6,274.7,29.13,29.13,0,0,1,274,245.16a29.08,29.08,0,0,1,20.78,8.63,29.56,29.56,0,0,1,8.57,21,28.72,28.72,0,0,1-8.57,20.56,29.45,29.45,0,0,1-20.88,8.5v10Zm131.22,88.69,18.15-25.61c7-9.91,14.88-17.11,24-22a60.91,60.91,0,0,1,29.1-7.63,62.26,62.26,0,0,1,7,.41c1.82.22,3.65.41,5.49.61,6.83.73,13.28,1.41,19.21,3.07,10,2.82,18.23,7.8,24.39,14.8,6,6.77,10.21,15.62,12.66,26.32A188.43,188.43,0,0,1,550,431.42c.42,26.09.37,52.66.33,78.36,0,13.35,0,27.1,0,40.73-8.26-.06-16.45-.1-24.41-.1s-16.12,0-24,.1c.12-30.3.24-67.1-.06-102.52a137.22,137.22,0,0,0-3.07-28.93c-4.49-19.9-18.49-31-39.44-31.26h-1.54a64,64,0,0,0-15.67,1.64c-17.78,4.43-28.71,17.32-32.48,38.32a133.86,133.86,0,0,0-1.92,23.18c-.13,25.22-.11,50.85-.09,75.63q0,12,0,23.91H395l-13.67,0c-8.66,0-15.68,0-22.12.07.09-52.86.09-106.51.08-158.44V352.92h24.79c8.16,0,14.85,0,21-.06-.05,3.89,0,7.75,0,11.52,0,2.25,0,4.5,0,6.75v31.4Zm-155.42,148c.07-25.38.06-51.08.06-76q0-11.47,0-22.94,0-11.86,0-23.74c0-24.57,0-49.93-.07-75,7.57.07,15.38.1,23.73.1,7.75,0,15.92,0,24.83-.09-.09,61.36-.09,126.13,0,197.61-8.57,0-16.66-.06-24.59-.06-8.19,0-16.22,0-23.94.07ZM298.2,556Z"/></g></svg>