<svg xmlns="http://www.w3.org/2000/svg" viewBox="0 0 1608 1677"><defs><style>.cls-1{fill:#252626;}.cls-11,.cls-2,.cls-6{fill:#fff;}.cls-3{fill:#ff99fb;}.cls-4{fill:#a4f6f9;}.cls-5{fill:#ba52ed;}.cls-6{font-size:80px;font-family:BebasNeue-Regular, Bebas Neue;}.cls-7{letter-spacing:0em;}.cls-8{letter-spacing:0em;}.cls-9{letter-spacing:-0.02em;}.cls-10{letter-spacing:-0.01em;}.cls-11{font-size:28px;font-family:Georgia-Italic, Georgia;font-style:italic;}</style></defs><g id="Parallax_Kingdom" data-name="Parallax Kingdom"><g id="Logo"><polygon class="cls-1" points="747.34 210.35 747.34 538.38 1031.42 702.4 1315.51 538.38 1315.51 210.35 1031.42 46.33 747.34 210.35"/><polygon class="cls-1" points="770.44 525.38 770.44 223.8 1031.62 73.01 1292.8 223.8 1292.8 525.38 1031.62 676.17 770.44 525.38"/><path class="cls-2" d="M1031.62,78.78,1287.8,226.69V522.5L1031.62,670.4,775.44,522.5V226.69L1031.62,78.78m0-11.54-5,2.88L770.44,218l-5,2.89V528.27l5,2.89,256.18,147.9,5,2.89,5-2.89,256.18-147.9,5-2.89V220.92l-5-2.89L1036.62,70.12l-5-2.88Z"/><polygon class="cls-3" points="1002.82 171.35 963.3 171.35 943.54 205.57 963.3 239.8 1002.82 239.8 1022.58 205.57 1002.82 171.35"/><polygon class="cls-4" points="1084.64 225.76 1038.08 225.76 1014.8 266.08 1038.08 306.4 1084.64 306.4 1107.91 266.08 1084.64 225.76"/><polygon class="cls-5" points="1064.98 135.4 1038.75 135.4 1025.63 158.12 1038.75 180.84 1064.98 180.84 1078.1 158.12 1064.98 135.4"/><text class="cls-6" transform="translate(791.09 401.56)">Z<tspan class="cls-7" x="28.96" y="0">a</tspan><tspan class="cls-8" x="60.88" y="0">cha</tspan><tspan class="cls-9" x="157.2" y="0">r</tspan><tspan x="188.16" y="0">y </tspan><tspan class="cls-10" x="232.48" y="0">D</tspan><tspan x="264.48" y="0">. Turner</tspan></text><text class="cls-11" transform="translate(795.53 436.45)">Environmental &amp; Climate Journalism</text></g></g></svg>