<svg xmlns="http://www.w3.org/2000/svg" viewBox="0 0 800 800"><defs><style>.cls-1{fill:#fff;}</style></defs><g id="Social_Icons" data-name="Social Icons"><path class="cls-1" d="M400,108c-161.27,0-292,130.73-292,292S238.73,692,400,692,692,561.27,692,400,561.27,108,400,108ZM283.3,529.76c-75.89,0-137.34-62.48-137.3-139.54,0-76.46,62.14-138.2,138.94-138.13,75.36.06,136.93,62.55,136.93,139A138.35,138.35,0,0,1,283.3,529.76ZM558.63,471c-5.19,12.81-11.89,24.74-21.56,34.77-7.4,7.68-16,13.49-26.74,15.29-12,2-22.51-1.62-31.95-8.84-10.52-8-17.83-18.65-23.79-30.28-8.82-17.25-13.84-35.67-16.79-54.72a230.07,230.07,0,0,1-2.71-38.7c.46-28.22,4.75-55.72,16.24-81.76,5.81-13.17,13.2-25.3,24.23-34.85,8.45-7.32,18-11.93,29.52-11.64,10.22.26,18.87,4.4,26.57,10.79,11.18,9.28,18.64,21.28,24.6,34.3a176.17,176.17,0,0,1,14.52,52.51c1.33,11,2,22,2.89,33.05C572.92,418.5,569,445.35,558.63,471Zm71.19-8.18c-1.82,11.32-4,22.58-8.49,33.19a39.82,39.82,0,0,1-5.29,9c-3.17,4-7.26,4.16-10.51.24a38.54,38.54,0,0,1-5.6-9.35c-4.53-10.62-6.69-21.89-8.49-33.22-4.25-26.73-5.5-53.67-5-80.68.44-26.06,2.2-52,7.85-77.58C596,296.68,598,289,601.8,281.91a26.92,26.92,0,0,1,4.36-6c2.75-2.84,6.13-2.89,8.9-.09a26.45,26.45,0,0,1,4.49,6.21c4.71,9,6.92,18.84,8.81,28.72a375.53,375.53,0,0,1,6.2,61.59c.16,6.23,0,12.47,0,18.71C634.82,415.08,633.66,439.05,629.82,462.83Z"/></g></svg>