<svg xmlns="http://www.w3.org/2000/svg" xmlns:xlink="http://www.w3.org/1999/xlink" viewBox="0 0 800 800"><defs><style>.cls-1{fill:none;}.cls-2{clip-path:url(#clip-path);}.cls-3{fill:#fff;}</style><clipPath id="clip-path"><circle class="cls-1" cx="400" cy="400" r="251.5"/></clipPath></defs><g id="Social_Icons" data-name="Social Icons"><g class="cls-2"><g id="ayQc2a.tif"><path class="cls-3" d="M144,612V188a12.67,12.67,0,0,0,.92-2.2,52,52,0,0,1,18.13-30.14c7.3-6.17,16-9.15,24.95-11.66H612a12.67,12.67,0,0,0,2.2.92,52,52,0,0,1,30.14,18.13c6.17,7.3,9.15,16,11.66,24.95V612a12.67,12.67,0,0,0-.92,2.2A52,52,0,0,1,637,644.34c-7.3,6.17-16,9.15-25,11.66H188a12.67,12.67,0,0,0-2.2-.92A52,52,0,0,1,155.66,637C149.49,629.65,146.51,621,144,612ZM257.12,360.67c1.31,33.84,18.87,55.82,50.82,67.76H282.59c5,14,12.6,25.44,23.9,34.22S331,475,344.93,477.35C316.24,499.44,284,508,248.3,505.4a5.12,5.12,0,0,0,1,1.15c28,16.56,57.76,28.38,90.72,29.21,36.33.91,71.23-5.8,103.64-23,43.24-22.94,71.86-58.39,88.38-104,8.69-24,12.55-48.92,13.85-74.33a9.65,9.65,0,0,1,2.94-5.73c4.4-4.3,9.3-8.09,13.73-12.36,5.14-4.95,9.49-10.5,11.05-17.56l-32.85,8.93-.66-1.36c11.63-9.85,22-20.59,25.93-36.69-5.79,2.52-10.72,5-15.86,6.83-7.65,2.75-15.46,5.05-23.19,7.59-2.88.95-4.79.05-6.84-2.25a53,53,0,0,0-26-16c-17.3-4.82-34.1-3-50.17,4.28-19.92,9.07-34.74,23.44-39.18,45.48-1.95,9.64-.33,20-.33,30.41-56.79-3.63-102.15-29.8-140-71.49-8.82,16.11-9.47,32.49-6,49.18S269,355.28,283.19,366l-.84,1.5Z"/><path class="cls-3" d="M188,144c-9,2.51-17.65,5.49-24.95,11.66a52,52,0,0,0-18.13,30.14A12.67,12.67,0,0,1,144,188V144Z"/><path class="cls-3" d="M656,188c-2.51-9-5.49-17.65-11.66-24.95a52,52,0,0,0-30.14-18.13A12.67,12.67,0,0,1,612,144h44Z"/><path class="cls-3" d="M144,612c2.51,9,5.49,17.65,11.66,25a52,52,0,0,0,30.14,18.13,12.67,12.67,0,0,1,2.2.92H144Z"/><path class="cls-3" d="M612,656c9-2.51,17.65-5.49,25-11.66a52,52,0,0,0,18.13-30.14A12.67,12.67,0,0,1,656,612v44Z"/></g></g></g></svg>