<svg xmlns="http://www.w3.org/2000/svg" xmlns:xlink="http://www.w3.org/1999/xlink" viewBox="0 0 800 800"><defs><style>.cls-1{fill:none;}.cls-2{clip-path:url(#clip-path);}.cls-3{fill:#252626;}.cls-4{fill:#fff;}</style><clipPath id="clip-path"><circle class="cls-1" cx="400" cy="400" r="251.5"/></clipPath></defs><g id="Social_Icons" data-name="Social Icons"><g class="cls-2"><g id="ayQc2a.tif"><path class="cls-3" d="M187,661l-.94-.4c-.31-.13-.62-.28-.93-.43l-.43-.21a57.23,57.23,0,0,1-32.84-19.79c-7.09-8.39-10.25-18.25-12.65-26.82l-.19-.66V187l.4-.94c.13-.31.28-.62.44-.93.07-.15.14-.29.2-.43a57.2,57.2,0,0,1,19.79-32.84c8.39-7.09,18.24-10.25,26.82-12.65l.66-.19H613l.94.4c.31.13.62.28.93.43l.43.21a57.3,57.3,0,0,1,32.84,19.78c7.09,8.4,10.25,18.25,12.65,26.83l.19.66V613l-.4.94c-.13.31-.28.62-.43.93-.07.15-.15.29-.21.43a57.27,57.27,0,0,1-19.78,32.84c-8.4,7.09-18.25,10.25-26.83,12.65l-.66.19Zm80.23-150.29c25.6,13,49.11,19.45,72.93,20.05,2.11,0,4.23.08,6.3.08,34.82,0,66.74-7.57,94.87-22.49,40.53-21.49,69.48-55.58,86-101.32,7.7-21.26,12.13-45.1,13.56-72.88a14.56,14.56,0,0,1,4.43-9.06c2.38-2.33,4.88-4.49,7.3-6.59s4.41-3.82,6.46-5.8a45.77,45.77,0,0,0,5.62-6.35l-26.61,7.23L533.89,305l3-2.52c8.81-7.46,15.85-14.64,20.37-23.48-1.78.76-3.55,1.48-5.37,2.13-5.09,1.84-10.29,3.48-15.32,5.08q-4,1.26-8,2.56a11.59,11.59,0,0,1-3.67.62c-4.64,0-7.52-3.23-8.47-4.3a47.73,47.73,0,0,0-23.58-14.5,67.13,67.13,0,0,0-18-2.5,69.26,69.26,0,0,0-28.8,6.52c-20.39,9.29-32.62,23.39-36.35,41.92-1.21,6-.89,12.5-.56,19.39.16,3.26.33,6.63.33,10v5.33l-5.32-.34c-52.78-3.38-98.1-25.54-138.36-67.7-4.78,11.75-5.55,24.44-2.45,39.38,3.65,17.6,11.13,30.49,22.87,39.41l3.46,2.64-4.88,8.68-22.17-6c3.13,27.26,18.58,45.75,47.06,56.39l25.92,9.68H290a65,65,0,0,0,19.58,25.28c11.12,8.63,24.53,11.78,36.19,13.71l11.34,1.88-9.11,7A139.71,139.71,0,0,1,267.21,510.71Z"/><path class="cls-4" d="M612,144a12.67,12.67,0,0,0,2.2.92,52,52,0,0,1,30.14,18.13c6.17,7.3,9.15,16,11.66,24.95V612a12.67,12.67,0,0,0-.92,2.2A52,52,0,0,1,637,644.34c-7.3,6.17-16,9.15-25,11.66H188a12.67,12.67,0,0,0-2.2-.92A52,52,0,0,1,155.66,637c-6.17-7.3-9.15-16-11.66-25V188a12.67,12.67,0,0,0,.92-2.2,52,52,0,0,1,18.13-30.14c7.3-6.17,16-9.15,24.95-11.66H612M404.48,346c-56.79-3.63-102.15-29.8-140-71.49-8.82,16.11-9.47,32.49-6,49.18S269,355.28,283.19,366l-.84,1.5-25.23-6.87c1.31,33.84,18.87,55.82,50.82,67.76H282.59c5,14,12.6,25.44,23.9,34.22S331,475,344.93,477.35c-25.38,19.54-53.56,28.5-84.42,28.5q-6,0-12.21-.45a5.12,5.12,0,0,0,1,1.15c28,16.56,57.76,28.38,90.72,29.21,2.14,0,4.29.08,6.43.08,34,0,66.71-6.9,97.21-23.07,43.24-22.94,71.86-58.39,88.38-104,8.69-24,12.55-48.92,13.85-74.33a9.65,9.65,0,0,1,2.94-5.73c4.4-4.3,9.3-8.09,13.73-12.36,5.14-4.95,9.49-10.5,11.05-17.56l-32.85,8.93-.66-1.36c11.63-9.85,22-20.59,25.93-36.69-5.79,2.52-10.72,5-15.86,6.83-7.65,2.75-15.46,5.05-23.19,7.59a6.76,6.76,0,0,1-2.11.37c-1.8,0-3.23-.93-4.73-2.62a53,53,0,0,0-26-16,71.41,71.41,0,0,0-19.3-2.69,74,74,0,0,0-30.87,7c-19.92,9.07-34.74,23.44-39.18,45.48-1.95,9.64-.33,20-.33,30.41M614,134H186.63l-1.33.37c-9.08,2.55-19.54,5.91-28.7,13.65a62.18,62.18,0,0,0-21.33,35c-.13.28-.3.63-.47,1L134,186V613.37l.37,1.33c2.55,9.08,5.91,19.54,13.65,28.7a62.18,62.18,0,0,0,35,21.33c.28.13.63.3,1,.47l1.87.8H613.37l1.33-.37c9.08-2.55,19.54-5.91,28.7-13.65a62.18,62.18,0,0,0,21.33-35c.13-.28.3-.63.47-1L666,614V186.63l-.37-1.33c-2.55-9.08-5.91-19.54-13.65-28.7a62.18,62.18,0,0,0-35-21.33c-.28-.13-.63-.3-1-.47L614,134ZM414.48,356.64V346c0-3.52-.17-7-.33-10.28-.32-6.57-.63-12.77.46-18.16,3.44-17.1,14.41-29.64,33.52-38.35a64.36,64.36,0,0,1,26.73-6.07,62.1,62.1,0,0,1,16.62,2.32,42.84,42.84,0,0,1,21.18,13c3.53,4,7.64,6,12.21,6a16.82,16.82,0,0,0,5.24-.87c2.62-.86,5.32-1.72,7.93-2.54l5.77-1.84a118.1,118.1,0,0,1-10.18,9.52l-6,5.05,3.46,7,.67,1.35,3.64,7.38,7.95-2.15,4.32-1.18c-2,1.7-3.93,3.47-5.87,5.36a19.36,19.36,0,0,0-5.93,12.38c-1.41,27.29-5.75,50.65-13.27,71.44-8,22-18.87,41.35-32.43,57.51A171.08,171.08,0,0,1,439,503.94c-27.4,14.53-58.53,21.9-92.52,21.9-2,0-4.12,0-6.18-.08-17.9-.45-35.65-4.32-54.35-12A144.15,144.15,0,0,0,351,485.28l18.23-14-22.69-3.76c-11-1.83-23.71-4.78-33.94-12.73a58.43,58.43,0,0,1-14.41-16.33h65.06l-51.84-19.36c-14.29-5.35-25.21-12.87-32.45-22.37a56.14,56.14,0,0,1-10.17-22.48l10.91,3,7.52,2,3.82-6.8.6-1.07.24-.42,4.26-7.59-6.93-5.27c-10.88-8.27-17.55-19.85-21-36.44-2.23-10.76-2.33-20.24-.22-29,17.2,17,35.54,30.62,54.68,40.7A200.32,200.32,0,0,0,403.84,356l10.64.68Z"/><path class="cls-3" d="M139,139h85.36l-35,9.81c-7.56,2.12-16.21,4.87-23.07,10.67-8.86,7.48-14.25,16.41-16.46,27.31a10.92,10.92,0,0,1-1,2.72l-.21.45L139,212.52Z"/><path class="cls-4" d="M188,144c-9,2.51-17.65,5.49-24.95,11.66a52,52,0,0,0-18.13,30.14A12.67,12.67,0,0,1,144,188V144h44m72.74-10H134V237.05l19.2-45.14.1-.2a15.65,15.65,0,0,0,1.42-3.92A42,42,0,0,1,169.5,163.3c5.51-4.65,12.19-7.15,21.2-9.67l70-19.63Z"/><path class="cls-3" d="M651.19,189.35c-2.12-7.56-4.87-16.21-10.67-23.07-7.48-8.86-16.41-14.25-27.31-16.46a10.92,10.92,0,0,1-2.72-1c-.15-.07-.3-.15-.45-.21L587.51,139H661v85.36Z"/><path class="cls-4" d="M656,144v44c-2.51-9-5.49-17.65-11.66-24.95a52,52,0,0,0-30.14-18.13A12.67,12.67,0,0,1,612,144h44m10-10H563l45.14,19.2.2.1a15.65,15.65,0,0,0,3.92,1.42A42,42,0,0,1,636.7,169.5c4.65,5.51,7.15,12.19,9.67,21.2l19.63,70V134Z"/><path class="cls-3" d="M139,661V575.63l9.81,35c2.12,7.56,4.87,16.21,10.67,23.07,7.48,8.86,16.41,14.25,27.31,16.46a10.92,10.92,0,0,1,2.72,1l.45.21,22.53,9.6Z"/><path class="cls-4" d="M144,612c2.51,9,5.49,17.65,11.66,25a52,52,0,0,0,30.14,18.13,12.67,12.67,0,0,1,2.2.92H144V612m-10-72.74V666H237.06l-45.15-19.2-.2-.1a15.65,15.65,0,0,0-3.92-1.42A42,42,0,0,1,163.3,630.5c-4.65-5.51-7.15-12.19-9.67-21.2l-19.63-70Z"/><path class="cls-3" d="M575.64,661l35-9.81c7.56-2.12,16.21-4.87,23.07-10.67,8.86-7.48,14.25-16.41,16.46-27.31a10.92,10.92,0,0,1,1-2.72c.07-.15.15-.3.21-.45l9.6-22.53V661Z"/><path class="cls-4" d="M656,612v44H612c9-2.51,17.65-5.49,25-11.66a52,52,0,0,0,18.13-30.14A12.67,12.67,0,0,1,656,612m10-49-19.19,45.1a1.63,1.63,0,0,0-.11.23,15.65,15.65,0,0,0-1.42,3.92A42,42,0,0,1,630.5,636.7c-5.51,4.65-12.19,7.15-21.2,9.67l-70,19.63H666V563Z"/></g></g></g></svg>